<svg width="36" height="37" viewBox="0 0 36 37" fill="none" xmlns="http://www.w3.org/2000/svg">
<path d="M20.2229 3.79493C20.2229 3.79493 23.7185 4.1127 28.1672 8.56153C32.616 13.0104 32.9339 16.5059 32.9339 16.5059" stroke="#6C0000" stroke-width="1.5" stroke-linecap="round"/>
<path d="M21.282 9.09131C21.282 9.09131 22.765 9.51502 24.9894 11.7394C27.2138 13.9639 27.6375 15.4468 27.6375 15.4468" stroke="#6C0000" stroke-width="1.5" stroke-linecap="round"/>
<path d="M23.4354 24.0834L24.1177 23.3651L22.4885 21.8176L21.8061 22.5359L23.4354 24.0834ZM26.3627 23.0626L29.2247 24.71L30.3456 22.7626L27.4837 21.1152L26.3627 23.0626ZM29.777 28.1253L27.6489 30.3657L29.2781 31.9131L31.4062 29.6727L29.777 28.1253ZM26.3686 31.0835C24.219 31.2958 18.61 31.1147 12.5219 24.705L10.8927 26.2525C17.5278 33.2381 23.8572 33.5894 26.5892 33.3197L26.3686 31.0835ZM12.5219 24.705C6.71549 18.5919 5.74152 13.4354 5.62012 11.1737L3.37636 11.2941C3.52504 14.0642 4.70124 19.7341 10.8927 26.2525L12.5219 24.705ZM14.5822 14.7627L15.0118 14.3103L13.3826 12.7628L12.953 13.2152L14.5822 14.7627ZM15.3493 8.67858L13.4604 6.00692L11.6257 7.30414L13.5146 9.97579L15.3493 8.67858ZM7.06696 5.43094L4.71571 7.90637L6.3449 9.45384L8.69616 6.97842L7.06696 5.43094ZM13.7676 13.9889C12.953 13.2152 12.9519 13.2163 12.9509 13.2174C12.9509 13.2174 12.9495 13.2189 12.9488 13.2196C12.9474 13.2211 12.9459 13.2227 12.9444 13.2243C12.9415 13.2275 12.9384 13.2308 12.9353 13.2342C12.929 13.2411 12.9223 13.2486 12.9153 13.2567C12.9013 13.2728 12.8859 13.2912 12.8695 13.312C12.8365 13.3536 12.7993 13.4048 12.7602 13.4658C12.6818 13.5883 12.5968 13.7496 12.5249 13.9519C12.3785 14.3632 12.2988 14.9078 12.3984 15.588C12.5942 16.9244 13.4699 18.7216 15.7578 21.1304L17.387 19.5829C15.2485 17.3313 14.7217 15.9446 14.6217 15.2623C14.5734 14.9331 14.6224 14.7596 14.6418 14.7052C14.6527 14.6745 14.6599 14.666 14.6529 14.6769C14.6495 14.6822 14.6428 14.6921 14.6314 14.7065C14.6258 14.7136 14.6189 14.7219 14.6108 14.7313C14.6067 14.7359 14.6023 14.7409 14.5976 14.7461C14.5952 14.7488 14.5927 14.7514 14.5901 14.7542C14.5889 14.7556 14.5876 14.757 14.5862 14.7584C14.5856 14.7591 14.5842 14.7605 14.5842 14.7605C14.5832 14.7616 14.5822 14.7627 13.7676 13.9889ZM15.7578 21.1304C18.0391 23.5321 19.762 24.4763 21.0765 24.6898C21.751 24.7993 22.297 24.7118 22.7105 24.5488C22.9125 24.4691 23.0724 24.3755 23.1924 24.2904C23.2523 24.2479 23.3022 24.2076 23.3423 24.1724C23.3625 24.1547 23.3802 24.1382 23.3957 24.1232C23.4034 24.1159 23.4106 24.1087 23.4172 24.1021C23.4205 24.0988 23.4237 24.0955 23.4267 24.0924C23.4282 24.0909 23.4297 24.0894 23.4312 24.0879C23.4319 24.0871 23.4333 24.0856 23.4333 24.0856C23.4343 24.0844 23.4354 24.0834 22.6207 23.3097C21.8061 22.5359 21.8072 22.5349 21.8082 22.5338C21.8082 22.5338 21.8096 22.5323 21.8102 22.5316C21.8115 22.5302 21.8129 22.5289 21.8142 22.5275C21.8169 22.5249 21.8195 22.5222 21.8219 22.5196C21.827 22.5147 21.8317 22.5099 21.8362 22.5055C21.8452 22.4968 21.8535 22.4893 21.8607 22.4831C21.8749 22.4705 21.8855 22.4624 21.8924 22.4576C21.9065 22.4476 21.905 22.451 21.886 22.4585C21.8571 22.4699 21.7209 22.518 21.4367 22.4718C20.8336 22.3739 19.5325 21.8416 17.387 19.5829L15.7578 21.1304ZM13.4604 6.00692C11.942 3.85942 8.90378 3.49711 7.06696 5.43094L8.69616 6.97842C9.47937 6.15384 10.8582 6.21862 11.6257 7.30414L13.4604 6.00692ZM5.62012 11.1737C5.58802 10.5755 5.84848 9.97648 6.3449 9.45384L4.71571 7.90637C3.913 8.75146 3.3029 9.92543 3.37636 11.2941L5.62012 11.1737ZM27.6489 30.3657C27.231 30.8058 26.7937 31.0416 26.3686 31.0835L26.5892 33.3197C27.7084 33.2092 28.6141 32.6124 29.2781 31.9131L27.6489 30.3657ZM15.0118 14.3103C16.4613 12.7843 16.5639 10.3963 15.3493 8.67858L13.5146 9.97579C14.147 10.8702 14.05 12.0602 13.3826 12.7628L15.0118 14.3103ZM29.2247 24.71C30.4542 25.4178 30.6949 27.1589 29.777 28.1253L31.4062 29.6727C33.3609 27.6146 32.7917 24.1706 30.3456 22.7626L29.2247 24.71ZM24.1177 23.3651C24.695 22.7572 25.5947 22.6206 26.3627 23.0626L27.4837 21.1152C25.8381 20.1681 23.7973 20.4396 22.4885 21.8176L24.1177 23.3651Z" fill="#6C0000"/>
</svg>
