<svg width="37" height="37" viewBox="0 0 37 37" fill="none" xmlns="http://www.w3.org/2000/svg">
<g clip-path="url(#clip0_72_182)">
<path d="M14.6488 35.0346C7.38049 33.105 2.04895 26.5615 2.04895 18.7749C2.04895 9.57848 9.5785 2.04893 18.7749 2.04893C27.9714 2.04893 35.5009 9.57848 35.5009 18.7749C35.5009 26.4972 30.2571 32.9968 23.0808 34.9858V25.0582H25.7856H26.8507L27.0197 24.0065L27.8286 18.9733L28.0614 17.5249H26.5945H23.0808V15.2696C23.0808 14.668 23.201 14.4173 23.2992 14.3082C23.3749 14.2242 23.6376 14.003 24.5272 14.003H26.8641H28.1141V12.753V8.16908V7.08496L27.0409 6.93164C25.7811 6.75168 24.2652 6.55956 22.9094 6.55956C20.5904 6.55956 18.5021 7.26887 16.9863 8.72953C15.463 10.1975 14.6488 12.2984 14.6488 14.8202V17.5249H11.4048H10.1548V18.7749V23.8082V25.0582H11.4048H14.6488V35.0346Z" stroke="#6C0000" stroke-width="2.5"/>
</g>
<defs>
<clipPath id="clip0_72_182">
<rect width="35.952" height="35.952" fill="white" transform="translate(0.79895 0.798933)"/>
</clipPath>
</defs>
</svg>
