<svg width="37" height="37" viewBox="0 0 37 37" fill="none" xmlns="http://www.w3.org/2000/svg">
<g clip-path="url(#clip0_72_184)">
<path d="M18.4877 0.597702C13.6059 0.597702 12.9932 0.619049 11.0758 0.706308C9.16214 0.793942 7.85591 1.09692 6.71296 1.54145C5.53069 2.00059 4.5278 2.61478 3.52865 3.61433C2.52876 4.6135 1.91459 5.61642 1.45397 6.79836C1.00832 7.94172 0.704981 9.24836 0.618848 11.1613C0.533089 13.0788 0.51062 13.6918 0.51062 18.5739C0.51062 23.4559 0.532341 24.0667 0.619223 25.9842C0.707229 27.8979 1.01019 29.2042 1.45434 30.3471C1.91384 31.5295 2.52801 32.5324 3.52753 33.5316C4.5263 34.5315 5.52919 35.1472 6.71071 35.6063C7.85441 36.0508 9.16101 36.3538 11.0743 36.4414C12.9917 36.5287 13.604 36.55 18.4855 36.55C23.3678 36.55 23.9785 36.5287 25.8959 36.4414C27.8096 36.3538 29.1173 36.0508 30.261 35.6063C31.4429 35.1472 32.4443 34.5315 33.4431 33.5316C34.443 32.5324 35.0571 31.5295 35.5178 30.3475C35.9597 29.2042 36.263 27.8975 36.3529 25.9846C36.439 24.0671 36.4615 23.4559 36.4615 18.5739C36.4615 13.6918 36.439 13.0792 36.3529 11.1617C36.263 9.24799 35.9597 7.94172 35.5178 6.79873C35.0571 5.61642 34.443 4.6135 33.4431 3.61433C32.4432 2.6144 31.4433 2.00022 30.2599 1.54145C29.114 1.09692 27.807 0.793942 25.8933 0.706308C23.9759 0.619049 23.3655 0.597702 18.4821 0.597702H18.4877ZM16.8752 3.83716C17.3538 3.83641 17.8878 3.83716 18.4877 3.83716C23.2872 3.83716 23.8561 3.85439 25.7514 3.94052C27.504 4.02067 28.4552 4.31353 29.0889 4.55958C29.9277 4.88539 30.5258 5.27488 31.1546 5.90404C31.7837 6.53321 32.1732 7.13242 32.4997 7.9713C32.7458 8.60421 33.039 9.55545 33.1188 11.3081C33.2049 13.2031 33.2236 13.7724 33.2236 18.5698C33.2236 23.3671 33.2049 23.9364 33.1188 25.8314C33.0386 27.5841 32.7458 28.5353 32.4997 29.1682C32.1739 30.0071 31.7837 30.6044 31.1546 31.2332C30.5254 31.8624 29.9281 32.2519 29.0889 32.5777C28.456 32.8249 27.504 33.117 25.7514 33.1971C23.8565 33.2833 23.2872 33.302 18.4877 33.302C13.6879 33.302 13.119 33.2833 11.2241 33.1971C9.47147 33.1162 8.52026 32.8234 7.88624 32.5773C7.04738 32.2515 6.44819 31.862 5.81905 31.2328C5.1899 30.6037 4.80043 30.006 4.47387 29.1667C4.22783 28.5338 3.9346 27.5826 3.85484 25.8299C3.7687 23.9349 3.75148 23.3656 3.75148 18.5653C3.75148 13.7649 3.7687 13.1986 3.85484 11.3036C3.93498 9.55096 4.22783 8.59972 4.47387 7.96606C4.79968 7.12717 5.1899 6.52797 5.81905 5.8988C6.44819 5.26963 7.04738 4.88015 7.88624 4.55358C8.51988 4.30641 9.47147 4.0143 11.2241 3.93378C12.8823 3.85888 13.525 3.83641 16.8752 3.83266V3.83716ZM28.083 6.82195C26.8921 6.82195 25.9259 7.78705 25.9259 8.97834C25.9259 10.1693 26.8921 11.1355 28.083 11.1355C29.2739 11.1355 30.2401 10.1693 30.2401 8.97834C30.2401 7.78742 29.2739 6.82195 28.083 6.82195ZM18.4877 9.34236C13.3898 9.34236 9.25651 13.4758 9.25651 18.5739C9.25651 23.672 13.3898 27.8035 18.4877 27.8035C23.5857 27.8035 27.7175 23.672 27.7175 18.5739C27.7175 13.4758 23.5857 9.34236 18.4877 9.34236ZM18.4877 12.5818C21.7968 12.5818 24.4796 15.2644 24.4796 18.5739C24.4796 21.883 21.7968 24.5659 18.4877 24.5659C15.1784 24.5659 12.4959 21.883 12.4959 18.5739C12.4959 15.2644 15.1784 12.5818 18.4877 12.5818Z" fill="#6C0000"/>
</g>
<defs>
<clipPath id="clip0_72_184">
<rect width="35.952" height="35.952" fill="white" transform="translate(0.510742 0.597864)"/>
</clipPath>
</defs>
</svg>
