<svg width="37" height="37" viewBox="0 0 37 37" fill="none" xmlns="http://www.w3.org/2000/svg">
<path d="M27.6312 12.121L29.0524 12.5947C30.5354 13.0891 31.2769 13.3362 31.7011 13.9247C32.1252 14.5132 32.1252 15.2948 32.1252 16.8581V25.3468C32.1252 27.2806 32.1252 28.2474 31.6164 28.8686C31.4435 29.0795 31.2336 29.2572 30.9972 29.3931C30.3008 29.7929 29.3472 29.6339 27.4396 29.3161C25.5576 29.0024 24.6165 28.8455 23.6837 28.9236C23.3564 28.951 23.0312 28.9998 22.7103 29.0699C21.7959 29.2696 20.935 29.7 19.2134 30.5609C16.9668 31.6843 15.8435 32.2459 14.6478 32.419C14.2877 32.4712 13.9242 32.4969 13.5604 32.4962C12.3522 32.4939 11.171 32.1002 8.8087 31.3128L8.23413 31.1213C6.75107 30.627 6.00953 30.3798 5.5854 29.7912C5.16125 29.2028 5.16125 28.4212 5.16125 26.8579V19.4732C5.16125 16.9881 5.16125 15.7457 5.89289 15.0774C6.02093 14.9605 6.16205 14.8588 6.31347 14.7743C7.17877 14.2915 8.35752 14.6844 10.715 15.4702" stroke="#6C0000" stroke-width="2.5"/>
<path d="M9.65527 11.6721C9.65527 6.95607 13.6793 3.13301 18.6433 3.13301C23.6072 3.13301 27.6313 6.95607 27.6313 11.6721C27.6313 16.351 24.7626 21.8111 20.2869 23.7636C19.2435 24.2188 18.043 24.2188 16.9997 23.7636C12.5239 21.8111 9.65527 16.351 9.65527 11.6721Z" stroke="#6C0000" stroke-width="2.5"/>
<path d="M18.6432 15.117C20.2979 15.117 21.6392 13.7756 21.6392 12.121C21.6392 10.4664 20.2979 9.125 18.6432 9.125C16.9886 9.125 15.6472 10.4664 15.6472 12.121C15.6472 13.7756 16.9886 15.117 18.6432 15.117Z" stroke="#6C0000" stroke-width="2.5"/>
</svg>
