<svg width="37" height="37" viewBox="0 0 37 37" fill="none" xmlns="http://www.w3.org/2000/svg">
<path fill-rule="evenodd" clip-rule="evenodd" d="M28.5882 5.0501C26.7268 5.0501 25.2178 6.55913 25.2178 8.4206C25.2178 10.2821 26.7268 11.7911 28.5882 11.7911C30.4497 11.7911 31.9587 10.2821 31.9587 8.4206C31.9587 6.55913 30.4497 5.0501 28.5882 5.0501ZM22.9708 8.4206C22.9708 5.31814 25.4857 2.8031 28.5882 2.8031C31.6908 2.8031 34.2057 5.31814 34.2057 8.4206C34.2057 11.5231 31.6908 14.0381 28.5882 14.0381C25.4857 14.0381 22.9708 11.5231 22.9708 8.4206ZM15.0218 5.7991H19.6003C20.2207 5.7991 20.7238 6.30211 20.7238 6.9226C20.7238 7.54309 20.2207 8.0461 19.6003 8.0461H15.1063C12.2499 8.0461 10.2206 8.04848 8.68113 8.25546C7.174 8.45808 6.30569 8.83808 5.67172 9.47204C5.03775 10.106 4.65776 10.9743 4.45514 12.4814C4.24816 14.0209 4.24578 16.0502 4.24578 18.9066C4.24578 21.763 4.24816 23.7923 4.45514 25.3318C4.65776 26.8388 5.03775 27.7072 5.67172 28.3411C6.30569 28.9751 7.174 29.3551 8.68113 29.5577C10.2206 29.7647 12.2499 29.7671 15.1063 29.7671H21.0983C23.9546 29.7671 25.984 29.7647 27.5235 29.5577C29.0305 29.3551 29.8988 28.9751 30.5328 28.3411C31.1668 27.7072 31.5468 26.8388 31.7493 25.3318C31.9563 23.7923 31.9587 21.763 31.9587 18.9066C31.9587 18.348 31.9628 17.9398 31.9662 17.5889C31.9718 17.0209 31.976 16.603 31.959 15.9392C31.9433 15.3188 32.4335 14.8032 33.0536 14.7875C33.674 14.7717 34.1896 15.2617 34.2054 15.882C34.2231 16.5802 34.2186 17.0569 34.2128 17.6591C34.2095 18.0096 34.2057 18.4025 34.2057 18.9066V18.9911C34.2057 21.7441 34.2057 23.9246 33.9764 25.6311C33.7402 27.3874 33.2427 28.809 32.1217 29.9301C31.0006 31.051 29.579 31.5485 27.8228 31.7847C26.1163 32.0141 23.9358 32.0141 21.1827 32.0141H15.0218C12.2688 32.0141 10.0883 32.0141 8.38172 31.7847C6.62544 31.5485 5.20391 31.051 4.08285 29.9301C2.96181 28.809 2.4643 27.3874 2.22818 25.6311C1.99873 23.9246 1.99875 21.7441 1.99878 18.9911V18.8221C1.99875 16.0691 1.99873 13.8886 2.22818 12.182C2.4643 10.4257 2.96181 9.00423 4.08285 7.88318C5.20391 6.76213 6.62544 6.26462 8.38172 6.02849C10.0883 5.79906 12.2688 5.79907 15.0218 5.7991ZM8.25117 12.1953C8.64841 11.7187 9.35684 11.6543 9.83352 12.0515L13.0675 14.7465C14.4651 15.9112 15.4354 16.7171 16.2546 17.244C17.0475 17.754 17.5853 17.9252 18.1023 17.9252C18.6192 17.9252 19.157 17.754 19.9499 17.244C20.7691 16.7171 21.7394 15.9112 23.137 14.7465C23.6137 14.3493 24.3221 14.4137 24.7194 14.8904C25.1165 15.367 25.0522 16.0755 24.5754 16.4726L24.5192 16.5197C23.1914 17.6261 22.1152 18.5229 21.1654 19.1338C20.1759 19.7702 19.2124 20.1722 18.1023 20.1722C16.9921 20.1722 16.0286 19.7702 15.0391 19.1338C14.0893 18.5229 13.0131 17.6261 11.6854 16.5197L8.39502 13.7777C7.91834 13.3805 7.85395 12.672 8.25117 12.1953Z" fill="#6C0000"/>
</svg>
