<svg width="16" height="16" viewBox="0 0 16 16" fill="none" xmlns="http://www.w3.org/2000/svg">
<path d="M0 16L1.13027 11.8917C0.432005 10.6865 0.0652266 9.3193 0.0669134 7.928C0.0687541 3.55644 3.64223 0 8.03351 0C10.1645 0.00107791 12.1646 0.826646 13.6689 2.32526C15.1731 3.82387 16.0008 5.81584 16 7.93436C15.998 12.3056 12.424 15.8627 8.0334 15.8627H8.02994C6.69676 15.8621 5.38675 15.5292 4.22313 14.8975L0 16Z" fill="white"/>
<path d="M8.0026 1.59999C4.47232 1.59999 1.60136 4.46977 1.6001 7.99716C1.59837 9.20166 1.93757 10.3821 2.57851 11.4019L2.73078 11.644L2.08413 14.0046L4.50644 13.3695L4.74034 13.5081C5.72272 14.0911 6.84911 14.3993 7.99778 14.4H8.00019C11.5277 14.4 14.3987 11.5299 14.4001 8.00229C14.4027 7.1615 14.2386 6.32853 13.9171 5.55161C13.5957 4.77469 13.1233 4.06925 12.5273 3.47613C11.9346 2.87977 11.2296 2.40688 10.4529 2.08484C9.67622 1.7628 8.84339 1.598 8.0026 1.59999Z" fill="url(#paint0_linear_72_694)"/>
<path fill-rule="evenodd" clip-rule="evenodd" d="M6.03405 5.13449C5.88651 4.81646 5.73126 4.81002 5.59111 4.80452L5.21381 4.80005C5.08255 4.80005 4.86927 4.84784 4.68897 5.03901C4.50867 5.23018 4 5.69221 4 6.63196C4 7.57171 4.70535 8.47977 4.80364 8.60736C4.90193 8.73495 6.16531 10.7249 8.16606 11.4905C9.82869 12.1268 10.167 12.0002 10.528 11.9684C10.8891 11.9366 11.6926 11.5064 11.8565 11.0604C12.0204 10.6143 12.0206 10.2322 11.9714 10.1523C11.9223 10.0724 11.791 10.0249 11.594 9.92935C11.397 9.83376 10.4294 9.37173 10.249 9.30794C10.0686 9.24415 9.93747 9.21246 9.8061 9.40363C9.67473 9.5948 9.29796 10.0248 9.18308 10.1523C9.0682 10.2798 8.95353 10.2958 8.75653 10.2003C8.55953 10.1048 7.92569 9.90306 7.17366 9.25235C6.58854 8.74606 6.19357 8.12081 6.07859 7.92974C5.9636 7.73868 6.06638 7.63519 6.1651 7.54002C6.25342 7.45441 6.36188 7.31696 6.46049 7.20548C6.5591 7.09399 6.59154 7.01431 6.65706 6.88703C6.72259 6.75976 6.68993 6.64796 6.64068 6.55248C6.59143 6.457 6.20899 5.51226 6.03405 5.13449Z" fill="white"/>
<defs>
<linearGradient id="paint0_linear_72_694" x1="7.86979" y1="2.36811" x2="7.93467" y2="13.3065" gradientUnits="userSpaceOnUse">
<stop stop-color="#57D163"/>
<stop offset="1" stop-color="#23B33A"/>
</linearGradient>
</defs>
</svg>
