<svg width="37" height="36" viewBox="0 0 37 36" fill="none" xmlns="http://www.w3.org/2000/svg">
<g clip-path="url(#clip0_72_178)">
<path d="M29.6877 5.30357C32.969 8.67857 35.0002 13.0982 35.0002 17.9196C35.0002 27.7232 27.0315 35.7589 17.4221 35.7589C14.5315 35.7589 11.719 34.9554 9.14087 33.5893L0.000244141 36L2.42212 26.7589C0.937744 24.1071 0.0783691 21.0536 0.0783691 17.8393C0.0783691 8.03571 7.89087 0 17.4221 0C22.1096 0 26.4846 1.92857 29.6877 5.30357ZM17.4221 32.7054C25.3909 32.7054 32.0315 26.0357 32.0315 17.9196C32.0315 13.9018 30.3909 10.2054 27.6565 7.39286C24.9221 4.58036 21.3284 3.05357 17.5002 3.05357C9.53149 3.05357 3.04712 9.72321 3.04712 17.8393C3.04712 20.6518 3.82837 23.3839 5.23462 25.7946L5.62524 26.3571L4.14087 31.8214L9.60962 30.2946L10.0784 30.6161C12.344 31.9821 14.844 32.7054 17.4221 32.7054ZM25.3909 21.6161C25.7815 21.8571 26.094 21.9375 26.1721 22.1786C26.3284 22.3393 26.3284 23.2232 25.9377 24.2679C25.5471 25.3125 23.8284 26.2768 23.0471 26.3571C21.6409 26.5982 20.5471 26.5179 17.8127 25.2321C13.4377 23.3036 10.6252 18.8036 10.3909 18.5625C10.1565 18.2411 8.67212 16.1518 8.67212 13.9018C8.67212 11.7321 9.76587 10.6875 10.1565 10.2054C10.5471 9.72322 11.0159 9.64286 11.3284 9.64286C11.5627 9.64286 11.8752 9.64286 12.1096 9.64286C12.4221 9.64286 12.7346 9.5625 13.1252 10.4464C13.4377 11.3304 14.3752 13.5 14.4534 13.7411C14.5315 13.9821 14.6096 14.2232 14.4534 14.5446C13.6721 16.2321 12.7346 16.1518 13.2034 16.9554C14.9221 19.9286 16.5627 20.9732 19.1409 22.2589C19.5315 22.5 19.7659 22.4196 20.0784 22.1786C20.3127 21.8571 21.1721 20.8125 21.4065 20.4107C21.719 19.9286 22.0315 20.0089 22.4221 20.1696C22.8127 20.3304 24.9221 21.375 25.3909 21.6161Z" fill="#6C0000"/>
</g>
<defs>
<clipPath id="clip0_72_178">
<rect width="35.952" height="35.952" fill="white" transform="translate(0.0979004)"/>
</clipPath>
</defs>
</svg>
